<svg xmlns="http://www.w3.org/2000/svg" xmlns:xlink="http://www.w3.org/1999/xlink" width="1080" zoomAndPan="magnify" viewBox="0 0 810 809.999993" height="1080" preserveAspectRatio="xMidYMid meet" version="1.0"><path fill="#d18165" d="M 626.242188 623.476562 C 632.90625 620.230469 809.914062 514.351562 752.914062 325.382812 C 724.046875 229.675781 635.429688 120.917969 332.371094 108.421875 C 205.714844 103.203125 86.164062 217.613281 53.082031 289.976562 C 0.0742188 405.933594 102.640625 556.699219 145.785156 581.429688 C 249.382812 640.8125 457.265625 705.78125 626.242188 623.476562 Z M 626.242188 623.476562 " fill-opacity="1" fill-rule="nonzero"/><path fill="#9f5433" d="M 281.757812 285.054688 C 281.28125 283.949219 296.863281 263.566406 318.125 266.496094 C 339.386719 269.425781 354.894531 286.988281 354.230469 290.125 C 353.566406 293.265625 326.257812 313.945312 319.832031 315.8125 C 313.40625 317.683594 298.203125 309.496094 296.328125 304.59375 C 294.453125 299.691406 281.757812 285.054688 281.757812 285.054688 Z M 281.757812 285.054688 " fill-opacity="1" fill-rule="nonzero"/><path fill="#9f5433" d="M 344.183594 169.753906 L 458.644531 203.570312 L 454.128906 190.324219 Z M 344.183594 169.753906 " fill-opacity="1" fill-rule="nonzero"/><path fill="#9f5433" d="M 100.332031 546.636719 L 212.875 484.878906 L 186.601562 446.167969 Z M 100.332031 546.636719 " fill-opacity="1" fill-rule="nonzero"/><path fill="#9f5433" d="M 249.019531 585.101562 C 249.019531 585.101562 256.246094 615.484375 331.90625 607.292969 C 407.566406 599.097656 409.894531 608.695312 409.894531 608.695312 C 409.894531 608.695312 429.730469 606.808594 463.945312 589.941406 C 498.160156 573.074219 520.8125 570.183594 549.242188 519.097656 C 577.675781 468.011719 567.078125 410.335938 556.234375 387.605469 C 545.386719 364.878906 480.332031 529.261719 478.886719 527.792969 C 477.441406 526.328125 249.019531 585.101562 249.019531 585.101562 Z M 249.019531 585.101562 " fill-opacity="1" fill-rule="nonzero"/><path fill="#7f473c" d="M 700.226562 212.140625 C 690.878906 194.382812 680.25 180.128906 669.035156 168.703125 C 622.824219 121.625 549.496094 114.402344 494.117188 150.277344 C 453.269531 176.738281 406.726562 222.839844 444.167969 282.378906 C 504.613281 378.503906 588.148438 352.394531 590.992188 368.660156 C 593.839844 384.929688 606.347656 425.933594 640.289062 425.871094 C 674.21875 425.808594 756.316406 318.679688 700.226562 212.140625 Z M 536.285156 326.859375 C 519.664062 319.382812 523.054688 306.441406 547.320312 297.316406 C 585.148438 283.09375 603.820312 320.535156 590.253906 331.234375 C 576.6875 341.921875 536.285156 326.859375 536.285156 326.859375 Z M 536.285156 326.859375 " fill-opacity="1" fill-rule="nonzero"/><path fill="#612b1a" d="M 570.605469 138.34375 C 605.191406 138.34375 637.433594 151.789062 661.398438 176.203125 C 672.578125 187.589844 682.457031 201.359375 690.757812 217.128906 C 704.953125 244.09375 710.730469 272.890625 707.925781 302.71875 C 705.003906 333.816406 693.511719 358.40625 684.386719 373.5625 C 667.304688 401.921875 647.964844 415.15625 640.273438 415.167969 L 640.214844 415.167969 C 610.84375 415.167969 602.398438 371.761719 601.535156 366.8125 C 599.335938 354.25 586.253906 352.484375 571.105469 350.441406 C 556.863281 348.519531 537.359375 345.886719 516.46875 335.878906 C 491.757812 324.035156 470.480469 304.121094 453.226562 276.683594 C 438.523438 253.300781 437.203125 231.167969 449.195312 209.019531 C 458.542969 191.757812 475.613281 175.015625 499.933594 159.261719 C 521.058594 145.578125 545.496094 138.34375 570.605469 138.34375 M 575.28125 345.769531 C 584.578125 345.769531 591.640625 343.765625 596.875 339.644531 C 604.976562 333.253906 607.527344 322.121094 603.527344 310.589844 C 598.839844 297.070312 584.671875 283.433594 563.589844 283.433594 C 557.121094 283.433594 550.378906 284.734375 543.554688 287.300781 C 520.648438 295.910156 515.546875 307.066406 515.300781 314.90625 C 515.132812 320.152344 517.070312 329.953125 531.894531 336.621094 L 532.140625 336.734375 C 532.191406 336.753906 532.242188 336.777344 532.292969 336.792969 L 532.546875 336.890625 C 533.519531 337.25 556.582031 345.769531 575.28125 345.769531 M 570.605469 135.875 C 545.015625 135.875 520.117188 143.246094 498.589844 157.1875 C 473.917969 173.171875 456.570312 190.214844 447.023438 207.84375 C 434.570312 230.84375 435.914062 253.792969 451.136719 277.996094 C 468.640625 305.835938 490.261719 326.058594 515.402344 338.105469 C 536.644531 348.285156 556.371094 350.945312 570.777344 352.886719 C 585.546875 354.878906 597.214844 356.453125 599.101562 367.238281 C 600.003906 372.398438 608.828125 417.636719 640.210938 417.640625 L 640.273438 417.640625 C 648.773438 417.625 668.734375 404.332031 686.5 374.835938 C 695.757812 359.460938 707.417969 334.511719 710.386719 302.949219 C 713.234375 272.636719 707.367188 243.375 692.941406 215.976562 C 684.527344 199.996094 674.507812 186.03125 663.160156 174.472656 C 638.730469 149.582031 605.859375 135.875 570.605469 135.875 Z M 575.28125 343.300781 C 557.023438 343.300781 534.363281 334.929688 533.410156 334.574219 L 533.152344 334.480469 L 532.90625 334.367188 C 519.394531 328.289062 517.621094 319.613281 517.769531 314.984375 C 517.992188 307.898438 522.796875 297.742188 544.425781 289.609375 C 550.96875 287.148438 557.417969 285.902344 563.589844 285.902344 C 583.457031 285.902344 596.792969 298.707031 601.191406 311.398438 C 604.835938 321.90625 602.597656 331.984375 595.347656 337.703125 C 590.566406 341.46875 584.003906 343.300781 575.28125 343.300781 Z M 575.28125 343.300781 " fill-opacity="1" fill-rule="nonzero"/><path fill="#98b43a" d="M 516.695312 188.21875 C 516.695312 188.21875 535.613281 181.050781 547.535156 201.648438 C 559.457031 222.246094 531.699219 257.105469 510.089844 256.21875 C 488.484375 255.335938 471.074219 227.21875 480.460938 213.15625 C 489.84375 199.09375 516.695312 188.21875 516.695312 188.21875 Z M 516.695312 188.21875 " fill-opacity="1" fill-rule="nonzero"/><path fill="#eacab9" d="M 582.652344 161.777344 C 582.652344 161.777344 591.601562 156.46875 610.507812 169.558594 C 629.417969 182.652344 617.71875 198.351562 607.007812 197.171875 C 596.296875 195.992188 574.589844 202.378906 567.40625 189.324219 C 560.222656 176.265625 566.046875 163.804688 582.652344 161.777344 Z M 582.652344 161.777344 " fill-opacity="1" fill-rule="nonzero"/><path fill="#ffba53" d="M 625.695312 209.289062 C 625.695312 209.289062 630.585938 195.796875 654.417969 201 C 678.25 206.199219 687.277344 222.265625 683.734375 243.605469 C 680.195312 264.945312 656.445312 254.960938 638.054688 241.964844 C 619.660156 228.96875 623.136719 213.03125 625.695312 209.289062 Z M 625.695312 209.289062 " fill-opacity="1" fill-rule="nonzero"/><path fill="#8cc0f5" d="M 650.9375 275.402344 C 650.9375 275.402344 662.371094 269.785156 683.84375 296.410156 C 705.316406 323.039062 690.28125 342.386719 676.648438 345.46875 C 663.019531 348.546875 643.402344 329.195312 638.847656 306.226562 C 634.292969 283.257812 646.082031 275.761719 650.9375 275.402344 Z M 650.9375 275.402344 " fill-opacity="1" fill-rule="nonzero"/><path fill="#ff6b53" d="M 583.949219 213.492188 C 583.949219 213.492188 606.457031 218.703125 617.144531 241.054688 C 627.832031 263.402344 620.621094 283.664062 605.171875 274.945312 C 589.722656 266.226562 535.125 211.988281 583.949219 213.492188 Z M 583.949219 213.492188 " fill-opacity="1" fill-rule="nonzero"/><path fill="#ff6b53" d="M 571.382812 255.507812 C 571.382812 255.507812 571.570312 253.550781 561.613281 250.980469 C 549.648438 247.890625 542.816406 256.761719 547.636719 262.0625 C 552.457031 267.367188 563.882812 263.671875 572.707031 269.773438 C 581.53125 275.878906 581.503906 260.328125 571.382812 255.507812 Z M 571.382812 255.507812 " fill-opacity="1" fill-rule="nonzero"/><path fill="#8cc0f5" d="M 328.523438 302.613281 C 328.523438 302.613281 378.640625 283.367188 412.695312 281.964844 C 446.75 280.566406 456.066406 299.8125 481.449219 310.660156 C 506.828125 321.507812 538.3125 332.707031 548.269531 361.402344 C 558.230469 390.097656 556.945312 392.546875 560.800781 413.191406 C 564.65625 433.839844 563.371094 482.390625 538.070312 520.183594 C 512.769531 557.976562 457.113281 574.511719 432.535156 594.195312 C 407.957031 613.878906 369.644531 629.628906 332.058594 611.519531 C 294.46875 593.410156 253.988281 598.921875 228.691406 569 C 203.390625 539.082031 212.066406 522.546875 199.054688 501.289062 C 186.042969 480.03125 183.152344 480.03125 187.488281 436.726562 C 191.824219 393.421875 251.367188 313.445312 273.066406 304.972656 C 294.765625 296.503906 328.523438 302.613281 328.523438 302.613281 Z M 328.523438 302.613281 " fill-opacity="1" fill-rule="nonzero"/><path fill="#f9eae1" d="M 366.777344 611.257812 C 355.96875 611.257812 345.488281 608.851562 335.632812 604.101562 C 320.378906 596.753906 305.125 593.191406 290.375 589.746094 C 268.066406 584.535156 248.800781 580.035156 234.976562 563.683594 C 221.09375 547.269531 218.546875 535.90625 215.851562 523.875 C 213.953125 515.40625 211.988281 506.652344 206.074219 496.992188 C 204.964844 495.175781 203.925781 493.511719 202.957031 491.960938 C 193.238281 476.398438 191.988281 474.398438 195.679688 437.546875 C 197.457031 419.785156 210.496094 391.710938 230.558594 362.441406 C 250.03125 334.035156 268.535156 315.582031 276.0625 312.644531 C 282.644531 310.074219 291.835938 308.714844 302.640625 308.714844 C 315.859375 308.714844 326.949219 310.695312 327.058594 310.714844 L 329.324219 311.125 L 331.472656 310.296875 C 331.964844 310.109375 380.746094 291.519531 413.035156 290.191406 C 414.089844 290.148438 415.140625 290.125 416.160156 290.125 C 433.828125 290.125 443.09375 296.507812 454.824219 304.582031 C 461.382812 309.097656 468.8125 314.214844 478.210938 318.230469 C 480.183594 319.074219 482.191406 319.917969 484.222656 320.773438 C 506.851562 330.292969 532.503906 341.085938 540.492188 364.101562 C 547.832031 385.246094 548.800781 391.265625 550.5625 402.191406 C 551.125 405.691406 551.765625 409.660156 552.707031 414.703125 C 556.59375 435.507812 554.195312 481.296875 531.230469 515.605469 C 515.792969 538.667969 487.527344 553.574219 462.589844 566.726562 C 449.148438 573.816406 436.453125 580.507812 427.386719 587.769531 C 416.4375 596.542969 394 611.257812 366.777344 611.257812 Z M 366.777344 611.257812 " fill-opacity="1" fill-rule="nonzero"/><path fill="#ff6b53" d="M 299.019531 362.601562 C 299.019531 362.601562 302.667969 347.996094 291.246094 337.632812 C 279.824219 327.273438 264.898438 346.609375 276.976562 356.476562 C 289.054688 366.34375 276.820312 372.785156 267.644531 366.335938 C 258.464844 359.882812 256.78125 341.757812 268.214844 330.203125 C 286.796875 311.417969 320.40625 331.21875 299.019531 362.601562 Z M 299.019531 362.601562 " fill-opacity="1" fill-rule="nonzero"/><path fill="#98b43a" d="M 310.601562 353.707031 C 310.601562 353.707031 307.898438 338.691406 316.183594 324.253906 C 324.464844 309.820312 339.464844 308.195312 339.464844 308.195312 C 339.464844 308.195312 354.109375 340.191406 310.601562 353.707031 Z M 310.601562 353.707031 " fill-opacity="1" fill-rule="nonzero"/><path fill="#98b43a" d="M 344.183594 349.324219 C 344.183594 349.324219 352.734375 323.253906 384.300781 331.738281 C 384.300781 331.738281 372.1875 355.417969 344.183594 349.324219 Z M 344.183594 349.324219 " fill-opacity="1" fill-rule="nonzero"/><path fill="#98b43a" d="M 237.636719 380.546875 C 237.636719 380.546875 252.09375 361.953125 272.222656 380.945312 C 272.222656 380.945312 255.953125 396.195312 237.636719 380.546875 Z M 237.636719 380.546875 " fill-opacity="1" fill-rule="nonzero"/><path fill="#8cc0f5" d="M 432.449219 345.144531 C 432.449219 345.144531 468.820312 336.039062 448.867188 320.992188 C 428.914062 305.949219 430.21875 335.054688 432.449219 345.144531 Z M 432.449219 345.144531 " fill-opacity="1" fill-rule="nonzero"/><path fill="#ff6a2f" d="M 381.144531 268.484375 C 381.570312 269.128906 404.113281 296.140625 402.339844 299.605469 C 400.570312 303.074219 390.449219 307.824219 383.941406 306.253906 C 377.433594 304.683594 339.554688 281.210938 339.554688 281.210938 C 339.554688 281.210938 321.878906 273.523438 320.921875 272.105469 C 320.921875 272.105469 296.421875 279.261719 294.84375 279.304688 C 293.269531 279.34375 321.128906 258.085938 324.148438 258.125 C 327.171875 258.164062 381.144531 268.484375 381.144531 268.484375 Z M 381.144531 268.484375 " fill-opacity="1" fill-rule="nonzero"/><path fill="#ffb28e" d="M 395.628906 272.363281 C 395.945312 273.066406 413.875 303.339844 411.570312 306.476562 C 409.265625 309.613281 398.515625 312.683594 392.34375 310.089844 C 386.167969 307.496094 352.539062 278.265625 352.539062 278.265625 C 352.539062 278.265625 336.320312 267.84375 335.601562 266.289062 C 335.601562 266.289062 310.273438 269.433594 308.710938 269.222656 C 307.148438 269.011719 338.050781 252.488281 341.027344 253.007812 C 344.003906 253.53125 395.628906 272.363281 395.628906 272.363281 Z M 395.628906 272.363281 " fill-opacity="1" fill-rule="nonzero"/><path fill="#ffb28e" d="M 47.40625 470.214844 C 47.40625 470.214844 44.285156 541.234375 100.332031 546.636719 C 102.773438 546.875 235.863281 431.226562 246.371094 422.667969 C 256.882812 414.101562 261.992188 408.449219 281.664062 395.289062 C 301.328125 382.128906 313.359375 358.691406 326.234375 347.417969 C 339.109375 336.140625 352.890625 327.765625 362.210938 321.214844 C 371.542969 314.664062 377.722656 311.285156 383.359375 307.4375 C 387.59375 304.546875 397.089844 301.535156 402.644531 297.121094 C 405.246094 295.054688 406.484375 291.710938 406.015625 288.425781 L 405.378906 283.921875 C 405.378906 283.921875 411.664062 286.542969 415.710938 277.972656 C 415.808594 277.761719 414.917969 275.675781 412.984375 272.589844 C 410.796875 269.117188 407.265625 264.367188 402.324219 259.671875 C 400.753906 258.175781 399.042969 256.695312 397.1875 255.253906 C 384.339844 245.296875 359.503906 232.894531 355.421875 231.347656 C 351.351562 229.792969 349.539062 226.507812 337.644531 227.582031 C 325.761719 228.648438 287.835938 234.765625 282.21875 235.972656 C 276.601562 237.171875 261.085938 232.988281 253.898438 240.261719 C 253.898438 240.261719 240.003906 238.820312 233.617188 248.121094 C 227.222656 257.421875 228.988281 270.488281 220.960938 290.640625 C 212.921875 310.800781 198.171875 349.710938 182.699219 366.242188 C 167.222656 382.777344 47.40625 470.214844 47.40625 470.214844 Z M 352.707031 282.382812 C 346.886719 285.195312 341.632812 288.472656 338.730469 290.75 C 332.070312 295.992188 311.714844 307.980469 309.71875 308.628906 C 307.722656 309.277344 303.34375 306.980469 303.34375 306.980469 C 303.195312 301.132812 298.570312 280.519531 299.121094 280.332031 C 299.429688 280.222656 304.8125 275.546875 309.378906 271.539062 L 309.398438 271.527344 C 312.292969 268.984375 314.859375 266.722656 315.597656 266.082031 C 316.15625 266.183594 316.980469 266.320312 318.125 266.496094 C 324.660156 267.523438 343.183594 261.363281 343.183594 261.363281 C 358.882812 270.570312 369.097656 270.226562 369.097656 270.226562 C 369.808594 272.640625 371.949219 274.75 373.277344 275.875 C 373.925781 276.425781 374.378906 276.738281 374.378906 276.738281 C 368.8125 275.765625 360.292969 278.691406 352.726562 282.363281 C 352.726562 282.371094 352.714844 282.375 352.707031 282.382812 Z M 352.707031 282.382812 " fill-opacity="1" fill-rule="nonzero"/><path fill="#ff6a2f" d="M 342.519531 253.121094 C 342.113281 254.300781 341.800781 255.488281 341.65625 256.730469 C 341.511719 257.964844 341.628906 259.195312 341.859375 260.410156 C 341.976562 261.046875 342.777344 261.46875 343.378906 261.273438 C 344.054688 261.054688 344.367188 260.4375 344.238281 259.753906 C 344.207031 259.59375 344.183594 259.429688 344.152344 259.269531 C 344.132812 259.117188 344.128906 259.109375 344.148438 259.242188 C 344.140625 259.183594 344.132812 259.125 344.125 259.070312 C 344.09375 258.789062 344.074219 258.507812 344.0625 258.226562 C 344.046875 257.726562 344.074219 257.230469 344.125 256.730469 C 344.144531 256.585938 344.140625 256.59375 344.121094 256.746094 C 344.128906 256.691406 344.140625 256.640625 344.148438 256.585938 C 344.167969 256.464844 344.1875 256.34375 344.214844 256.21875 C 344.261719 255.96875 344.320312 255.71875 344.382812 255.472656 C 344.527344 254.898438 344.707031 254.335938 344.898438 253.777344 C 345.109375 253.164062 344.660156 252.398438 344.039062 252.257812 C 343.351562 252.101562 342.742188 252.464844 342.519531 253.121094 Z M 342.519531 253.121094 " fill-opacity="1" fill-rule="nonzero"/><path fill="#ff6a2f" d="M 315.03125 264.042969 C 314.996094 264.019531 314.808594 263.878906 314.96875 264 C 315.132812 264.125 314.929688 263.964844 314.910156 263.949219 C 314.820312 263.875 314.730469 263.800781 314.644531 263.71875 C 314.472656 263.5625 314.304688 263.398438 314.140625 263.230469 C 314.054688 263.132812 313.964844 263.039062 313.882812 262.9375 C 313.847656 262.902344 313.6875 262.664062 313.65625 262.667969 C 313.6875 262.664062 313.835938 262.90625 313.683594 262.699219 C 313.652344 262.660156 313.621094 262.617188 313.59375 262.574219 C 313.515625 262.46875 313.445312 262.359375 313.371094 262.25 C 313.246094 262.054688 313.125 261.851562 313.015625 261.644531 C 312.960938 261.542969 312.90625 261.4375 312.855469 261.332031 C 312.8125 261.242188 312.761719 261.039062 312.691406 260.976562 C 312.726562 261.007812 312.789062 261.21875 312.726562 261.054688 C 312.703125 260.992188 312.679688 260.933594 312.65625 260.871094 C 312.617188 260.761719 312.578125 260.652344 312.542969 260.539062 C 312.460938 260.292969 312.394531 260.042969 312.335938 259.785156 C 312.191406 259.15625 311.433594 258.726562 310.816406 258.925781 C 310.15625 259.136719 309.800781 259.769531 309.953125 260.445312 C 310.484375 262.765625 311.882812 264.769531 313.785156 266.175781 C 314.027344 266.355469 314.460938 266.378906 314.738281 266.300781 C 315.023438 266.222656 315.332031 266 315.472656 265.734375 C 315.816406 265.089844 315.585938 264.457031 315.03125 264.042969 Z M 315.03125 264.042969 " fill-opacity="1" fill-rule="nonzero"/><path fill="#ff6a2f" d="M 298.492188 279.5625 C 298.253906 279.542969 298.015625 279.519531 297.777344 279.484375 C 297.886719 279.5 297.996094 279.515625 298.105469 279.53125 C 297.496094 279.445312 296.890625 279.324219 296.300781 279.15625 C 296.015625 279.078125 295.734375 278.988281 295.457031 278.890625 C 295.308594 278.835938 295.15625 278.78125 295.007812 278.722656 C 294.976562 278.710938 294.785156 278.640625 294.785156 278.632812 C 294.835938 278.652344 294.882812 278.675781 294.933594 278.695312 C 294.882812 278.671875 294.835938 278.652344 294.785156 278.628906 C 294.46875 278.492188 294.179688 278.410156 293.832031 278.507812 C 293.546875 278.585938 293.238281 278.804688 293.097656 279.074219 C 292.945312 279.359375 292.867188 279.707031 292.972656 280.023438 C 293.0625 280.3125 293.25 280.636719 293.539062 280.761719 C 295.128906 281.460938 296.761719 281.886719 298.492188 282.035156 C 299.136719 282.089844 299.757812 281.425781 299.726562 280.796875 C 299.695312 280.082031 299.183594 279.621094 298.492188 279.5625 Z M 298.492188 279.5625 " fill-opacity="1" fill-rule="nonzero"/><path fill="#ff6a2f" d="M 301.613281 306.898438 C 299.566406 310.398438 296.183594 312.953125 293.078125 315.460938 C 289.941406 317.992188 286.554688 320.335938 282.597656 321.332031 C 281.054688 321.722656 281.707031 324.105469 283.253906 323.714844 C 287.527344 322.636719 291.167969 320.136719 294.5625 317.417969 C 297.9375 314.710938 301.53125 311.933594 303.746094 308.144531 C 304.550781 306.769531 302.414062 305.527344 301.613281 306.898438 Z M 301.613281 306.898438 " fill-opacity="1" fill-rule="nonzero"/><path fill="#7f473c" d="M 400.464844 259.867188 C 398.726562 260.09375 397.65625 261.894531 398.28125 263.535156 C 399.511719 266.742188 401.832031 271.15625 403.925781 272.832031 C 411.765625 279.105469 413.066406 278.242188 414.980469 278.214844 C 415.394531 278.210938 415.710938 277.972656 415.710938 277.972656 C 415.710938 277.972656 415.421875 276.367188 413.855469 273.34375 C 411.667969 269.867188 407.265625 264.367188 402.324219 259.671875 C 401.710938 259.714844 401.074219 259.785156 400.464844 259.867188 Z M 400.464844 259.867188 " fill-opacity="1" fill-rule="nonzero"/><path fill="#7f473c" d="M 401.128906 285.730469 C 399.382812 285.554688 397.933594 287.066406 398.171875 288.808594 C 398.636719 292.210938 399.898438 297.035156 401.558594 299.144531 C 407.769531 307.03125 409.230469 306.484375 411.101562 306.894531 C 411.507812 306.984375 411.867188 306.824219 411.867188 306.824219 C 411.867188 306.824219 411.949219 305.195312 411.113281 301.894531 C 409.769531 298.011719 406.730469 291.65625 402.980469 285.960938 C 402.375 285.867188 401.738281 285.789062 401.128906 285.730469 Z M 401.128906 285.730469 " fill-opacity="1" fill-rule="nonzero"/><path fill="#ff6a2f" d="M 252.347656 240.042969 C 249.796875 242.183594 247.363281 244.40625 246.054688 247.542969 C 244.796875 250.5625 244.542969 253.875 243.484375 256.960938 C 242.96875 258.464844 245.351562 259.113281 245.867188 257.617188 C 246.863281 254.710938 247.125 251.597656 248.226562 248.722656 C 249.347656 245.792969 251.75 243.753906 254.09375 241.789062 C 255.3125 240.769531 253.558594 239.027344 252.347656 240.042969 Z M 252.347656 240.042969 " fill-opacity="1" fill-rule="nonzero"/><path fill="#ff6a2f" d="M 376.878906 272.5 C 376.015625 271.605469 375.183594 270.65625 374.273438 269.808594 C 373.457031 269.046875 372.617188 268.792969 371.515625 268.734375 C 368.917969 268.597656 366.324219 268.476562 363.742188 268.148438 C 358.921875 267.53125 354.101562 266.28125 349.847656 263.886719 C 347.855469 262.765625 346.246094 261.351562 344.496094 259.914062 C 343.625 259.199219 342.6875 259.191406 341.65625 259.53125 C 340.421875 259.9375 339.210938 260.402344 337.980469 260.816406 C 333.066406 262.472656 328.003906 263.894531 322.824219 264.351562 C 321.417969 264.476562 320.003906 264.53125 318.59375 264.503906 C 317.824219 264.488281 317.050781 264.449219 316.285156 264.382812 C 315.695312 264.335938 315.082031 264.207031 314.496094 264.34375 C 313.3125 264.621094 312.75 265.847656 312.207031 266.8125 C 311.492188 268.085938 310.847656 269.394531 310.070312 270.628906 C 309.21875 271.976562 311.355469 273.21875 312.203125 271.875 C 312.785156 270.949219 313.296875 269.988281 313.8125 269.027344 C 314.070312 268.542969 314.332031 268.0625 314.609375 267.589844 C 314.726562 267.386719 314.886719 266.953125 315.074219 266.824219 C 315.308594 266.664062 314.976562 266.65625 315.511719 266.78125 C 316.597656 267.027344 317.871094 266.96875 318.980469 266.980469 C 320.199219 266.988281 321.417969 266.941406 322.628906 266.839844 C 327.390625 266.441406 332.050781 265.308594 336.59375 263.867188 C 337.710938 263.511719 338.820312 263.140625 339.929688 262.757812 C 340.480469 262.566406 341.03125 262.371094 341.582031 262.175781 C 341.820312 262.089844 342.066406 261.988281 342.3125 261.914062 C 342.777344 261.769531 342.746094 261.765625 343.105469 261.972656 C 343.507812 262.203125 343.898438 262.703125 344.257812 263.007812 C 344.644531 263.332031 345.042969 263.644531 345.445312 263.949219 C 346.355469 264.644531 347.308594 265.277344 348.300781 265.847656 C 352.121094 268.058594 356.390625 269.40625 360.722656 270.167969 C 363.386719 270.636719 366.085938 270.910156 368.789062 271.074219 C 369.4375 271.113281 370.085938 271.144531 370.734375 271.171875 C 371.242188 271.195312 371.890625 271.109375 372.34375 271.378906 C 372.792969 271.652344 373.167969 272.210938 373.53125 272.585938 C 374.0625 273.140625 374.597656 273.691406 375.132812 274.246094 C 376.242188 275.390625 377.988281 273.640625 376.878906 272.5 Z M 376.878906 272.5 " fill-opacity="1" fill-rule="nonzero"/><path fill="#612b1a" d="M 298.488281 154.082031 L 400.496094 279.613281 C 395.328125 276.148438 388.058594 274.605469 383.589844 273.957031 C 361.550781 247.414062 342.679688 224.625 336.730469 217.222656 C 319.679688 196.015625 274.179688 136.734375 274.179688 136.734375 C 272.210938 133.542969 273.488281 132.25 274.699219 131.113281 C 276.394531 129.523438 280.453125 129.894531 282.921875 133.359375 C 288.117188 140.269531 293.300781 147.175781 298.488281 154.082031 Z M 298.488281 154.082031 " fill-opacity="1" fill-rule="nonzero"/><path fill="#612b1a" d="M 482.558594 385.902344 C 482.558594 388.304688 476.78125 385.902344 476.78125 385.902344 C 476.78125 385.902344 439.765625 341.515625 403.527344 297.957031 C 406.21875 295.707031 406.558594 293.304688 406.507812 292.035156 C 406.484375 291.363281 406.085938 289.914062 406.09375 289.238281 C 406.121094 287.980469 405.816406 287.03125 405.660156 285.929688 L 453.160156 344.414062 C 453.160156 344.414062 482.558594 383.488281 482.558594 385.902344 Z M 482.558594 385.902344 " fill-opacity="1" fill-rule="nonzero"/><path fill="#eacab9" d="M 471.949219 406.792969 C 472.371094 407.976562 472.757812 409.167969 473.101562 410.375 C 473.449219 411.582031 473.757812 412.800781 474.027344 414.027344 C 474.296875 415.257812 474.527344 416.496094 474.71875 417.746094 C 474.910156 418.996094 475.0625 420.253906 475.175781 421.519531 C 475.289062 422.785156 475.363281 424.054688 475.398438 425.335938 C 475.433594 426.613281 475.433594 427.898438 475.390625 429.191406 C 475.347656 430.480469 475.265625 431.773438 475.144531 433.070312 C 475.023438 434.367188 474.863281 435.667969 474.664062 436.96875 C 474.464844 438.269531 474.226562 439.574219 473.949219 440.875 C 473.671875 442.179688 473.355469 443.480469 473.003906 444.78125 C 472.652344 446.082031 472.257812 447.382812 471.828125 448.679688 C 471.398438 449.972656 470.933594 451.265625 470.429688 452.554688 C 469.925781 453.84375 469.382812 455.125 468.804688 456.402344 C 468.226562 457.679688 467.613281 458.949219 466.960938 460.210938 C 466.3125 461.472656 465.625 462.726562 464.90625 463.96875 C 464.183594 465.214844 463.429688 466.449219 462.636719 467.675781 C 461.847656 468.898438 461.023438 470.113281 460.167969 471.3125 C 459.308594 472.515625 458.417969 473.703125 457.496094 474.875 C 456.574219 476.050781 455.621094 477.210938 454.636719 478.359375 C 453.648438 479.503906 452.636719 480.632812 451.589844 481.746094 C 450.542969 482.863281 449.46875 483.957031 448.363281 485.039062 C 447.261719 486.117188 446.128906 487.179688 444.972656 488.222656 C 443.8125 489.261719 442.628906 490.285156 441.414062 491.289062 C 440.203125 492.292969 438.96875 493.273438 437.707031 494.234375 C 436.445312 495.195312 435.160156 496.132812 433.855469 497.050781 C 432.546875 497.964844 431.21875 498.859375 429.867188 499.730469 C 428.515625 500.597656 427.144531 501.445312 425.753906 502.265625 C 424.363281 503.085938 422.953125 503.882812 421.523438 504.652344 C 420.097656 505.425781 418.652344 506.167969 417.191406 506.886719 C 415.730469 507.605469 414.253906 508.296875 412.761719 508.960938 C 411.269531 509.625 409.765625 510.261719 408.25 510.867188 C 406.734375 511.476562 405.203125 512.054688 403.664062 512.605469 C 402.125 513.15625 400.574219 513.679688 399.015625 514.171875 C 397.457031 514.664062 395.890625 515.125 394.316406 515.558594 C 392.742188 515.988281 391.164062 516.390625 389.578125 516.761719 C 387.992188 517.136719 386.40625 517.476562 384.8125 517.785156 C 383.21875 518.09375 381.625 518.375 380.027344 518.621094 C 378.433594 518.867188 376.835938 519.085938 375.238281 519.269531 C 373.644531 519.453125 372.050781 519.605469 370.457031 519.726562 C 368.867188 519.847656 367.277344 519.9375 365.691406 519.992188 C 364.109375 520.050781 362.53125 520.074219 360.957031 520.066406 C 359.386719 520.0625 357.820312 520.023438 356.261719 519.949219 C 354.707031 519.878906 353.160156 519.777344 351.621094 519.640625 C 350.082031 519.507812 348.554688 519.339844 347.042969 519.144531 C 345.527344 518.945312 344.023438 518.714844 342.535156 518.453125 C 341.046875 518.191406 339.574219 517.902344 338.117188 517.578125 C 336.65625 517.253906 335.214844 516.898438 333.792969 516.515625 C 332.367188 516.128906 330.960938 515.714844 329.574219 515.269531 C 328.1875 514.824219 326.820312 514.347656 325.472656 513.84375 C 324.125 513.339844 322.800781 512.804688 321.496094 512.242188 C 320.191406 511.675781 318.914062 511.085938 317.65625 510.464844 C 316.398438 509.84375 315.167969 509.195312 313.960938 508.519531 C 312.753906 507.84375 311.574219 507.140625 310.421875 506.410156 C 309.265625 505.683594 308.140625 504.925781 307.042969 504.144531 C 305.945312 503.363281 304.875 502.554688 303.835938 501.722656 C 302.792969 500.890625 301.785156 500.035156 300.804688 499.15625 C 299.824219 498.273438 298.878906 497.371094 297.960938 496.445312 C 297.046875 495.519531 296.160156 494.570312 295.308594 493.601562 C 294.460938 492.628906 293.640625 491.640625 292.859375 490.628906 C 292.074219 489.617188 291.324219 488.585938 290.609375 487.535156 C 289.894531 486.484375 289.214844 485.414062 288.574219 484.328125 C 287.929688 483.238281 287.320312 482.136719 286.75 481.015625 C 286.179688 479.894531 285.644531 478.757812 285.148438 477.605469 C 284.648438 476.453125 284.191406 475.285156 283.769531 474.105469 C 283.34375 472.921875 282.960938 471.730469 282.613281 470.523438 C 282.269531 469.316406 281.960938 468.097656 281.691406 466.871094 C 281.421875 465.640625 281.191406 464.402344 281 463.152344 C 280.808594 461.902344 280.65625 460.644531 280.542969 459.378906 C 280.425781 458.113281 280.351562 456.84375 280.316406 455.5625 C 280.28125 454.285156 280.285156 453 280.328125 451.707031 C 280.371094 450.417969 280.453125 449.125 280.574219 447.828125 C 280.695312 446.53125 280.855469 445.230469 281.054688 443.929688 C 281.253906 442.628906 281.492188 441.324219 281.769531 440.023438 C 282.042969 438.71875 282.359375 437.417969 282.714844 436.117188 C 283.066406 434.816406 283.457031 433.515625 283.886719 432.21875 C 284.316406 430.921875 284.785156 429.632812 285.289062 428.34375 C 285.792969 427.054688 286.332031 425.773438 286.910156 424.496094 C 287.488281 423.21875 288.105469 421.949219 288.753906 420.6875 C 289.40625 419.425781 290.089844 418.171875 290.8125 416.929688 C 291.53125 415.683594 292.289062 414.449219 293.078125 413.222656 C 293.871094 412 294.691406 410.785156 295.550781 409.585938 C 296.40625 408.382812 297.296875 407.195312 298.21875 406.019531 C 299.140625 404.847656 300.097656 403.6875 301.082031 402.539062 C 302.066406 401.394531 303.082031 400.265625 304.128906 399.152344 C 305.171875 398.035156 306.25 396.941406 307.351562 395.859375 C 308.457031 394.78125 309.585938 393.71875 310.746094 392.675781 C 311.90625 391.636719 313.089844 390.613281 314.300781 389.609375 C 315.511719 388.605469 316.75 387.625 318.011719 386.664062 C 319.269531 385.703125 320.554688 384.765625 321.863281 383.847656 C 323.171875 382.933594 324.5 382.039062 325.851562 381.167969 C 327.203125 380.300781 328.574219 379.453125 329.964844 378.632812 C 331.355469 377.8125 332.765625 377.015625 334.191406 376.246094 C 335.621094 375.472656 337.066406 374.730469 338.527344 374.011719 C 339.988281 373.292969 341.464844 372.601562 342.953125 371.9375 C 344.445312 371.273438 345.949219 370.636719 347.46875 370.03125 C 348.984375 369.421875 350.511719 368.84375 352.054688 368.292969 C 353.59375 367.742188 355.140625 367.21875 356.699219 366.726562 C 358.257812 366.234375 359.824219 365.773438 361.398438 365.339844 C 362.972656 364.910156 364.554688 364.507812 366.136719 364.136719 C 367.722656 363.761719 369.3125 363.421875 370.90625 363.113281 C 372.496094 362.804688 374.09375 362.523438 375.6875 362.277344 C 377.285156 362.03125 378.882812 361.8125 380.476562 361.628906 C 382.074219 361.445312 383.667969 361.292969 385.257812 361.171875 C 386.851562 361.050781 388.441406 360.960938 390.023438 360.90625 C 391.609375 360.847656 393.1875 360.824219 394.757812 360.832031 C 396.332031 360.835938 397.898438 360.875 399.453125 360.949219 C 401.011719 361.019531 402.558594 361.121094 404.097656 361.257812 C 405.632812 361.390625 407.160156 361.558594 408.675781 361.753906 C 410.191406 361.953125 411.691406 362.183594 413.179688 362.445312 C 414.667969 362.703125 416.144531 362.996094 417.601562 363.320312 C 419.058594 363.644531 420.5 364 421.925781 364.382812 C 423.351562 364.769531 424.757812 365.183594 426.144531 365.628906 C 427.53125 366.074219 428.898438 366.550781 430.246094 367.054688 C 431.59375 367.558594 432.917969 368.09375 434.222656 368.65625 C 435.523438 369.222656 436.804688 369.8125 438.0625 370.433594 C 439.316406 371.054688 440.546875 371.703125 441.753906 372.378906 C 442.960938 373.054688 444.140625 373.757812 445.296875 374.484375 C 446.449219 375.214844 447.578125 375.972656 448.675781 376.753906 C 449.773438 377.535156 450.84375 378.34375 451.882812 379.175781 C 452.921875 380.007812 453.933594 380.863281 454.910156 381.742188 C 455.890625 382.625 456.839844 383.527344 457.753906 384.453125 C 458.671875 385.378906 459.554688 386.328125 460.40625 387.296875 C 461.257812 388.269531 462.074219 389.257812 462.859375 390.269531 C 463.644531 391.28125 464.390625 392.3125 465.105469 393.363281 C 465.820312 394.414062 466.5 395.484375 467.144531 396.570312 C 467.789062 397.660156 468.394531 398.761719 468.96875 399.882812 C 469.539062 401.003906 470.074219 402.140625 470.570312 403.292969 C 471.066406 404.445312 471.527344 405.613281 471.949219 406.792969 Z M 471.949219 406.792969 " fill-opacity="1" fill-rule="nonzero"/><path fill="#ffba53" d="M 496.703125 410.621094 C 498.800781 415.617188 500.835938 418.078125 501.519531 418.8125 C 500.65625 418.070312 493.023438 414.894531 486.824219 408.609375 C 484.921875 406.683594 483.160156 404.46875 481.761719 401.941406 C 475.816406 391.183594 476.78125 385.894531 476.78125 385.894531 C 476.78125 385.894531 474.046875 379.613281 481.835938 384.324219 C 487.8125 387.929688 491.574219 397.242188 494.382812 404.644531 C 495.238281 406.882812 495.996094 408.941406 496.703125 410.621094 Z M 496.703125 410.621094 " fill-opacity="1" fill-rule="nonzero"/><path fill="#ffba53" d="M 501.75 419.027344 C 501.726562 419.007812 501.667969 418.953125 501.585938 418.871094 C 501.675781 418.953125 501.726562 419 501.75 419.027344 Z M 501.75 419.027344 " fill-opacity="1" fill-rule="nonzero"/><path fill="#bfbebe" d="M 476.777344 385.898438 C 476.992188 385.996094 479.03125 386.871094 480.773438 385.761719 C 481.417969 385.351562 481.796875 384.808594 482.011719 384.433594 C 478.429688 378.820312 474.519531 373.019531 470.25 367.085938 C 466.503906 361.875 462.769531 356.964844 459.085938 352.339844 C 459.003906 352.949219 458.847656 353.726562 458.359375 354.453125 C 457.609375 355.574219 456.085938 356.828125 452.984375 357.355469 Z M 476.777344 385.898438 " fill-opacity="1" fill-rule="nonzero"/><path fill="#f9eae1" d="M 476.980469 194.597656 L 336.824219 168.378906 C 336.824219 168.378906 331.117188 129.671875 356.511719 98.015625 L 402.679688 113.1875 L 447.246094 127.84375 L 483.671875 139.8125 C 483.671875 139.8125 469.695312 158.738281 476.980469 194.597656 Z M 476.980469 194.597656 " fill-opacity="1" fill-rule="nonzero"/><path fill="#eacab9" d="M 490.734375 165.539062 C 490.734375 165.539062 484.070312 195.921875 476.984375 194.597656 C 476.984375 194.597656 465.648438 161.648438 483.675781 139.808594 C 483.675781 139.808594 492.570312 140.636719 490.734375 165.539062 Z M 490.734375 165.539062 " fill-opacity="1" fill-rule="nonzero"/><path fill="#612b1a" d="M 486.035156 156.019531 C 486.035156 156.019531 477.867188 163.042969 481.863281 179.65625 L 510.558594 182.191406 C 510.558594 182.191406 517.59375 175.621094 513.3125 163.941406 Z M 486.035156 156.019531 " fill-opacity="1" fill-rule="nonzero"/><path fill="#8cc0f5" d="M 434.023438 171.492188 L 395.050781 162.3125 C 395.050781 162.3125 387.367188 129.332031 409.65625 115.484375 L 447.246094 127.84375 C 441.550781 135.175781 429.070312 146.320312 434.023438 171.492188 Z M 434.023438 171.492188 " fill-opacity="1" fill-rule="nonzero"/><path fill="#9f5433" d="M 90.320312 251.523438 C 90.320312 251.523438 180.105469 244.875 203.71875 237.164062 C 227.332031 229.453125 216.707031 213.308594 216.707031 213.308594 Z M 90.320312 251.523438 " fill-opacity="1" fill-rule="nonzero"/><path fill="#f9eae1" d="M 253.566406 211.027344 L 140.832031 124.976562 C 140.832031 124.976562 149.847656 96.398438 183.429688 87.734375 L 218.203125 120.433594 L 251.769531 152.003906 L 279.203125 177.800781 C 279.203125 177.800781 260.175781 183.570312 253.566406 211.027344 Z M 253.566406 211.027344 " fill-opacity="1" fill-rule="nonzero"/><path fill="#eacab9" d="M 276.066406 198.398438 C 276.066406 198.398438 259.269531 215.378906 253.570312 211.027344 C 253.570312 211.027344 255.59375 183.53125 279.207031 177.800781 C 279.207031 177.800781 286.667969 182.707031 276.066406 198.398438 Z M 276.066406 198.398438 " fill-opacity="1" fill-rule="nonzero"/><path fill="#612b1a" d="M 275.40625 189.757812 C 275.40625 189.757812 265.746094 190.4375 263.226562 203.460938 L 287.332031 219.191406 C 287.332031 219.191406 295.839844 218.257812 296.328125 208.382812 Z M 275.40625 189.757812 " fill-opacity="1" fill-rule="nonzero"/><path fill="#ff6b53" d="M 224.460938 174.613281 L 193.796875 149.425781 C 193.796875 149.425781 199.019531 123.695312 223.457031 125.375 L 251.769531 152.003906 C 244.152344 154.105469 229.242188 155.421875 224.460938 174.613281 Z M 224.460938 174.613281 " fill-opacity="1" fill-rule="nonzero"/><path fill="#f9eae1" d="M 211.609375 224.125 L 73.277344 255.375 C 73.277344 255.375 57.144531 230.121094 72.050781 198.800781 L 119.445312 193.113281 L 165.195312 187.628906 L 202.582031 183.140625 C 202.582031 183.140625 194.796875 201.4375 211.609375 224.125 Z M 211.609375 224.125 " fill-opacity="1" fill-rule="nonzero"/><path fill="#eacab9" d="M 216.363281 198.765625 C 216.363281 198.765625 218.609375 222.542969 211.613281 224.125 C 211.613281 224.125 191.824219 204.925781 202.585938 183.136719 C 202.585938 183.136719 211.132812 180.566406 216.363281 198.765625 Z M 216.363281 198.765625 " fill-opacity="1" fill-rule="nonzero"/><path fill="#612b1a" d="M 209.3125 193.726562 C 209.3125 193.726562 203.636719 201.574219 212.007812 211.863281 L 239.539062 203.46875 C 239.539062 203.46875 244.285156 196.34375 237.023438 189.632812 Z M 209.3125 193.726562 " fill-opacity="1" fill-rule="nonzero"/><path fill="#ffba53" d="M 165.007812 223.082031 L 126.015625 230.4375 C 126.015625 230.4375 109.632812 209.921875 126.605469 192.257812 L 165.195312 187.628906 C 161.914062 194.820312 153.355469 207.101562 165.007812 223.082031 Z M 165.007812 223.082031 " fill-opacity="1" fill-rule="nonzero"/><path fill="#ff6b53" d="M 501.519531 418.808594 C 501.519531 418.808594 513.085938 428.449219 527.382812 422.664062 C 541.675781 416.882812 530.753906 395.035156 516.617188 401.621094 C 502.484375 408.207031 502 394.390625 511.800781 388.929688 C 521.597656 383.46875 538.652344 389.832031 544.085938 405.15625 C 552.921875 430.054688 520.480469 451.714844 501.519531 418.808594 Z M 501.519531 418.808594 " fill-opacity="1" fill-rule="nonzero"/><path fill="#98b43a" d="M 504.492188 433.105469 C 504.492188 433.105469 519.1875 437.203125 528.585938 450.9375 C 537.984375 464.671875 532.921875 478.890625 532.921875 478.890625 C 532.921875 478.890625 497.742188 478.167969 504.492188 433.105469 Z M 504.492188 433.105469 " fill-opacity="1" fill-rule="nonzero"/><path fill="#98b43a" d="M 498.304688 456 C 498.304688 456 518.0625 475.035156 496.699219 499.773438 C 496.699219 499.773438 480.644531 478.570312 498.304688 456 Z M 498.304688 456 " fill-opacity="1" fill-rule="nonzero"/><path fill="#ff6b53" d="M 358.890625 540.902344 C 358.890625 540.902344 348.949219 552.207031 354.347656 566.65625 C 359.742188 581.101562 381.875 570.765625 375.667969 556.457031 C 369.464844 542.148438 383.285156 542.039062 388.484375 551.980469 C 393.679688 561.921875 386.863281 578.800781 371.402344 583.824219 C 346.277344 591.992188 325.492188 558.976562 358.890625 540.902344 Z M 358.890625 540.902344 " fill-opacity="1" fill-rule="nonzero"/><path fill="#98b43a" d="M 344.519531 543.492188 C 344.519531 543.492188 340.03125 558.074219 326.050781 567.101562 C 312.070312 576.128906 297.996094 570.691406 297.996094 570.691406 C 297.996094 570.691406 299.660156 535.542969 344.519531 543.492188 Z M 344.519531 543.492188 " fill-opacity="1" fill-rule="nonzero"/><path fill="#98b43a" d="M 254.03125 438.398438 C 254.03125 438.398438 258.449219 453.003906 251.890625 468.296875 C 245.328125 483.59375 230.613281 486.941406 230.613281 486.941406 C 230.613281 486.941406 212.375 456.847656 254.03125 438.398438 Z M 254.03125 438.398438 " fill-opacity="1" fill-rule="nonzero"/><path fill="#98b43a" d="M 321.804688 536.695312 C 321.804688 536.695312 302.246094 555.941406 278.089844 533.917969 C 278.089844 533.917969 299.714844 518.4375 321.804688 536.695312 Z M 321.804688 536.695312 " fill-opacity="1" fill-rule="nonzero"/><path fill="#98b43a" d="M 512.363281 359.636719 C 512.363281 359.636719 520.753906 381.644531 494.074219 388.996094 C 494.074219 388.996094 489.484375 367.167969 512.363281 359.636719 Z M 512.363281 359.636719 " fill-opacity="1" fill-rule="nonzero"/><path fill="#98b43a" d="M 421.664062 553.113281 C 421.664062 553.113281 400.292969 563.007812 391.113281 536.898438 C 391.113281 536.898438 412.570312 530.808594 421.664062 553.113281 Z M 421.664062 553.113281 " fill-opacity="1" fill-rule="nonzero"/><path fill="#ff6b53" d="M 368.214844 449.011719 C 368.214844 449.011719 386.585938 439.523438 387.558594 421.523438 C 388.53125 403.523438 398.171875 392.515625 409.726562 397.210938 C 421.277344 401.90625 409.726562 419.292969 409.726562 419.292969 C 409.726562 419.292969 423.703125 417.675781 426.9375 429.398438 C 430.171875 441.125 404.882812 442.742188 404.882812 442.742188 C 404.882812 442.742188 423.300781 458.105469 412.789062 466.195312 C 402.277344 474.28125 387.558594 464.578125 387.558594 464.578125 C 387.558594 464.578125 384.488281 493.6875 371.953125 493.6875 C 359.421875 493.6875 347.898438 464.980469 368.214844 449.011719 Z M 368.214844 449.011719 " fill-opacity="1" fill-rule="nonzero"/><path fill="#ff6b53" d="M 359.949219 444.90625 C 359.949219 444.90625 379.769531 435.867188 379.863281 416.460938 C 379.957031 397.054688 359.773438 393.109375 342.121094 390.988281 C 324.46875 388.867188 342.121094 413.730469 342.121094 413.730469 C 342.121094 413.730469 322.1875 411.609375 318.628906 422.828125 C 315.066406 434.050781 339.503906 450.917969 359.949219 444.90625 Z M 359.949219 444.90625 " fill-opacity="1" fill-rule="nonzero"/><path fill="#9f5433" d="M 556.78125 575.988281 C 556.78125 575.988281 632.714844 525.601562 651.578125 503.917969 C 670.441406 482.230469 669.535156 465.816406 669.535156 465.816406 Z M 556.78125 575.988281 " fill-opacity="1" fill-rule="nonzero"/><path fill="#f9eae1" d="M 654.386719 465.917969 C 654.386719 465.917969 668.125 459.421875 671.210938 457.941406 C 674.300781 456.460938 664.046875 478.550781 664.046875 478.550781 C 664.046875 478.550781 644.460938 484.253906 654.386719 465.917969 Z M 654.386719 465.917969 " fill-opacity="1" fill-rule="nonzero"/><path fill="#ffba53" d="M 541.964844 568.007812 L 654.386719 465.917969 C 654.386719 465.917969 651.402344 475.46875 664.046875 478.550781 L 553.535156 578.9375 C 553.535156 578.9375 541.835938 580.699219 541.964844 568.007812 Z M 541.964844 568.007812 " fill-opacity="1" fill-rule="nonzero"/><path fill="#612b1a" d="M 669.585938 459.796875 C 669.074219 457.914062 672.769531 455.113281 673.765625 455.605469 C 674.761719 456.097656 670.671875 463.78125 669.585938 459.796875 Z M 669.585938 459.796875 " fill-opacity="1" fill-rule="nonzero"/><path fill="#9f5433" d="M 144.148438 280.949219 C 144.148438 280.949219 173.199219 286.964844 189.425781 287.285156 C 205.648438 287.605469 209.503906 274.113281 198.582031 270.578125 C 187.65625 267.042969 144.148438 280.949219 144.148438 280.949219 Z M 144.148438 280.949219 " fill-opacity="1" fill-rule="nonzero"/><path fill="#8cc0f5" d="M 200.441406 277.546875 C 200.054688 281.871094 146.328125 280.824219 144.148438 280.949219 C 142.839844 281.03125 141.226562 277.085938 141.675781 271.964844 C 141.832031 270.121094 142.261719 268.121094 143.070312 266.097656 C 144.277344 263.050781 147.035156 260.894531 150.273438 260.339844 C 158.042969 259.023438 174.558594 256.421875 186.101562 255.996094 C 195.527344 255.632812 198.933594 262.019531 200.0625 268.074219 C 200.8125 272.023438 200.589844 275.84375 200.441406 277.546875 Z M 200.441406 277.546875 " fill-opacity="1" fill-rule="nonzero"/><path fill="#ffba53" d="M 200.441406 277.546875 C 200.054688 281.871094 146.328125 280.824219 144.148438 280.949219 C 142.839844 281.03125 141.226562 277.085938 141.675781 271.964844 C 154.3125 272.097656 187.351562 272.855469 200.0625 268.074219 C 200.8125 272.023438 200.589844 275.84375 200.441406 277.546875 Z M 200.441406 277.546875 " fill-opacity="1" fill-rule="nonzero"/><path fill="#eacab9" d="M 356.511719 98.015625 L 349.738281 92.824219 C 349.738281 92.824219 318.652344 130.203125 327.808594 169.105469 L 336.824219 168.378906 C 336.824219 168.378906 334.375 127.308594 356.511719 98.015625 Z M 356.511719 98.015625 " fill-opacity="1" fill-rule="nonzero"/><path fill="#eacab9" d="M 183.429688 87.734375 L 180.75 81.015625 C 180.75 81.015625 136.574219 97.402344 135.613281 122.785156 L 140.832031 124.976562 C 140.832031 124.976562 147.398438 101.683594 183.429688 87.734375 Z M 183.429688 87.734375 " fill-opacity="1" fill-rule="nonzero"/><path fill="#eacab9" d="M 72.050781 198.800781 L 66.378906 197.003906 C 66.378906 197.003906 49.671875 233.945312 67.664062 258.125 L 73.277344 255.375 C 73.277344 255.375 57.96875 231.125 72.050781 198.800781 Z M 72.050781 198.800781 " fill-opacity="1" fill-rule="nonzero"/><path fill="#8cc0f5" d="M 365.195312 545.546875 C 365.195312 545.546875 351.792969 557.984375 363.855469 559.722656 C 375.914062 561.464844 368.519531 549.332031 365.195312 545.546875 Z M 365.195312 545.546875 " fill-opacity="1" fill-rule="nonzero"/><path fill="#8cc0f5" d="M 506.425781 411.464844 C 506.425781 411.464844 518.28125 425.386719 520.535156 413.40625 C 522.785156 401.429688 510.351562 408.304688 506.425781 411.464844 Z M 506.425781 411.464844 " fill-opacity="1" fill-rule="nonzero"/><path fill="#8cc0f5" d="M 264.324219 503.992188 C 264.324219 503.992188 227.484375 510.964844 246.527344 527.148438 C 265.570312 543.332031 265.964844 514.199219 264.324219 503.992188 Z M 264.324219 503.992188 " fill-opacity="1" fill-rule="nonzero"/><path fill="#8cc0f5" d="M 448.15625 511.460938 C 448.15625 511.460938 456.109375 548.105469 471.777344 528.636719 C 487.445312 509.167969 458.316406 509.550781 448.15625 511.460938 Z M 448.15625 511.460938 " fill-opacity="1" fill-rule="nonzero"/><path fill="#ff6b53" d="M 496.703125 410.621094 C 498.800781 415.617188 500.835938 418.078125 501.519531 418.8125 C 500.65625 418.070312 493.023438 414.894531 486.824219 408.609375 C 488.332031 407.714844 490.453125 407.53125 490.453125 407.53125 C 490.453125 407.53125 489.246094 403.375 491.714844 402.832031 C 492.488281 402.660156 493.441406 403.464844 494.382812 404.644531 C 495.238281 406.882812 495.996094 408.941406 496.703125 410.621094 Z M 496.703125 410.621094 " fill-opacity="1" fill-rule="nonzero"/><path fill="#ff6b53" d="M 501.75 419.027344 C 501.726562 419.007812 501.667969 418.953125 501.585938 418.871094 C 501.675781 418.953125 501.726562 419 501.75 419.027344 Z M 501.75 419.027344 " fill-opacity="1" fill-rule="nonzero"/><path fill="#ff6a2f" d="M 401.300781 281.757812 C 400.015625 279.046875 397.578125 277.144531 394.949219 275.820312 C 391.925781 274.300781 388.585938 273.160156 385.238281 272.648438 C 377.957031 271.535156 370.296875 273.023438 363.222656 274.773438 C 359.128906 275.789062 355.382812 278.089844 351.640625 279.972656 C 350.222656 280.6875 351.472656 282.820312 352.886719 282.105469 C 355.949219 280.5625 359.03125 278.664062 362.296875 277.601562 C 365.480469 276.570312 368.917969 276.03125 372.210938 275.480469 C 375.632812 274.910156 379.121094 274.570312 382.589844 274.816406 C 385.9375 275.054688 389.210938 275.984375 392.289062 277.296875 C 395.09375 278.492188 397.820312 280.160156 399.167969 283.003906 C 399.84375 284.441406 401.976562 283.1875 401.300781 281.757812 Z M 401.300781 281.757812 " fill-opacity="1" fill-rule="nonzero"/><path fill="#7f473c" d="M 375.585938 300.945312 C 375.585938 300.945312 372.511719 295.503906 374.980469 289.171875 C 377.445312 282.839844 397.492188 281.230469 402.183594 283.433594 C 406.875 285.636719 407.4375 295.082031 404.890625 297.34375 C 402.339844 299.605469 381.742188 308.570312 379.523438 306.886719 C 377.304688 305.203125 375.585938 300.945312 375.585938 300.945312 Z M 375.585938 300.945312 " fill-opacity="1" fill-rule="nonzero"/><path fill="#eacab9" d="M 346.476562 100.09375 C 347.929688 101.449219 349.382812 102.808594 350.839844 104.164062 C 351.308594 104.605469 352.121094 104.667969 352.585938 104.164062 C 353.023438 103.683594 353.089844 102.886719 352.585938 102.417969 C 351.128906 101.0625 349.675781 99.703125 348.222656 98.347656 C 347.75 97.90625 346.9375 97.84375 346.476562 98.347656 C 346.039062 98.824219 345.972656 99.621094 346.476562 100.09375 Z M 346.476562 100.09375 " fill-opacity="1" fill-rule="nonzero"/><path fill="#9f5433" d="M 346.457031 98.5625 C 347.464844 99.355469 348.472656 100.148438 349.480469 100.941406 C 350.449219 101.703125 351.457031 102.570312 352.71875 102.765625 C 353.355469 102.863281 354.078125 102.605469 354.238281 101.902344 C 354.375 101.3125 354.058594 100.492188 353.375 100.382812 C 353.25 100.363281 353.125 100.339844 353.003906 100.304688 C 352.945312 100.289062 352.542969 100.160156 352.851562 100.269531 C 352.617188 100.1875 352.390625 100.035156 352.179688 99.902344 C 351.964844 99.761719 351.746094 99.613281 351.546875 99.449219 C 351.796875 99.648438 351.441406 99.367188 351.402344 99.335938 C 351.285156 99.242188 351.167969 99.148438 351.046875 99.054688 C 350.097656 98.308594 349.148438 97.5625 348.203125 96.816406 C 347.933594 96.605469 347.683594 96.453125 347.328125 96.453125 C 347.027344 96.453125 346.664062 96.589844 346.457031 96.816406 C 346.046875 97.261719 345.914062 98.136719 346.457031 98.5625 Z M 346.457031 98.5625 " fill-opacity="1" fill-rule="nonzero"/><path fill="#9f5433" d="M 341.476562 106.652344 C 343.285156 108.167969 345.1875 109.566406 347.183594 110.824219 C 347.730469 111.167969 348.566406 110.957031 348.871094 110.378906 C 349.195312 109.769531 349.015625 109.058594 348.429688 108.691406 C 347.492188 108.097656 346.570312 107.476562 345.675781 106.824219 C 345.453125 106.664062 345.234375 106.5 345.015625 106.335938 C 344.90625 106.253906 344.796875 106.171875 344.691406 106.089844 C 344.667969 106.074219 344.496094 105.941406 344.613281 106.03125 C 344.726562 106.121094 344.554688 105.984375 344.535156 105.96875 C 344.089844 105.621094 343.652344 105.269531 343.222656 104.90625 C 342.726562 104.492188 341.953125 104.386719 341.476562 104.90625 C 341.054688 105.363281 340.945312 106.210938 341.476562 106.652344 Z M 341.476562 106.652344 " fill-opacity="1" fill-rule="nonzero"/><path fill="#9f5433" d="M 337.039062 114.984375 C 339.46875 115.964844 341.921875 116.882812 344.394531 117.738281 C 345.003906 117.949219 345.773438 117.496094 345.914062 116.875 C 346.070312 116.1875 345.707031 115.582031 345.050781 115.355469 C 342.578125 114.5 340.125 113.582031 337.695312 112.601562 C 337.09375 112.359375 336.3125 112.867188 336.175781 113.464844 C 336.011719 114.179688 336.394531 114.726562 337.039062 114.984375 Z M 337.039062 114.984375 " fill-opacity="1" fill-rule="nonzero"/><path fill="#9f5433" d="M 332.839844 123.832031 C 335.710938 124.421875 338.523438 125.253906 341.25 126.324219 C 341.871094 126.566406 342.605469 126.054688 342.769531 125.460938 C 342.960938 124.761719 342.53125 124.183594 341.90625 123.941406 C 339.179688 122.871094 336.367188 122.039062 333.496094 121.453125 C 332.84375 121.320312 332.164062 121.640625 331.976562 122.316406 C 331.808594 122.925781 332.183594 123.699219 332.839844 123.832031 Z M 332.839844 123.832031 " fill-opacity="1" fill-rule="nonzero"/><path fill="#9f5433" d="M 330.195312 133.570312 C 333.296875 134.300781 336.480469 134.683594 339.664062 134.699219 C 341.253906 134.707031 341.257812 132.238281 339.664062 132.230469 C 336.691406 132.214844 333.746094 131.871094 330.851562 131.1875 C 330.203125 131.035156 329.515625 131.390625 329.332031 132.050781 C 329.160156 132.675781 329.542969 133.417969 330.195312 133.570312 Z M 330.195312 133.570312 " fill-opacity="1" fill-rule="nonzero"/><path fill="#9f5433" d="M 328.015625 142.664062 C 331.136719 143.328125 334.304688 143.785156 337.488281 144.039062 C 338.152344 144.09375 338.722656 143.433594 338.722656 142.804688 C 338.722656 142.09375 338.15625 141.621094 337.488281 141.570312 C 334.519531 141.335938 331.582031 140.902344 328.671875 140.28125 C 328.019531 140.140625 327.335938 140.472656 327.152344 141.144531 C 326.984375 141.757812 327.359375 142.523438 328.015625 142.664062 Z M 328.015625 142.664062 " fill-opacity="1" fill-rule="nonzero"/><path fill="#9f5433" d="M 326.867188 152.082031 C 330.058594 152.125 333.019531 154.0625 336.308594 153.871094 C 336.976562 153.832031 337.546875 153.332031 337.546875 152.636719 C 337.546875 151.996094 336.980469 151.363281 336.308594 151.402344 C 334.734375 151.492188 333.285156 151.054688 331.765625 150.589844 C 330.167969 150.101562 328.554688 149.632812 326.867188 149.609375 C 325.277344 149.589844 325.277344 152.058594 326.867188 152.082031 Z M 326.867188 152.082031 " fill-opacity="1" fill-rule="nonzero"/><path fill="#9f5433" d="M 328.199219 163.304688 C 328.789062 163.113281 329.382812 163.03125 329.933594 163.105469 C 330.65625 163.195312 331.34375 163.457031 332.074219 163.539062 C 332.757812 163.613281 333.449219 163.550781 334.132812 163.515625 C 334.890625 163.476562 335.652344 163.4375 336.410156 163.398438 C 337.074219 163.363281 337.644531 162.855469 337.644531 162.164062 C 337.644531 161.519531 337.078125 160.894531 336.410156 160.925781 C 335.652344 160.964844 334.890625 161.003906 334.132812 161.042969 C 333.472656 161.078125 332.683594 161.167969 332.097656 161.0625 C 331.328125 160.925781 330.597656 160.679688 329.8125 160.625 C 329.050781 160.574219 328.261719 160.6875 327.539062 160.925781 C 326.90625 161.132812 326.496094 161.777344 326.679688 162.445312 C 326.847656 163.066406 327.5625 163.515625 328.199219 163.304688 Z M 328.199219 163.304688 " fill-opacity="1" fill-rule="nonzero"/><path fill="#9f5433" d="M 173.523438 85.136719 C 174.296875 87.007812 175.167969 88.832031 176.175781 90.589844 C 176.5 91.152344 177.308594 91.394531 177.867188 91.035156 C 178.433594 90.667969 178.652344 89.945312 178.308594 89.34375 C 177.839844 88.527344 177.398438 87.695312 176.980469 86.851562 C 176.78125 86.441406 176.585938 86.03125 176.398438 85.617188 C 176.304688 85.410156 176.210938 85.199219 176.121094 84.992188 C 176.070312 84.875 176.015625 84.753906 175.96875 84.632812 C 176.089844 84.929688 175.925781 84.53125 175.90625 84.480469 C 175.777344 84.167969 175.636719 83.917969 175.335938 83.742188 C 175.070312 83.585938 174.683594 83.519531 174.386719 83.617188 C 173.8125 83.800781 173.257812 84.496094 173.523438 85.136719 Z M 173.523438 85.136719 " fill-opacity="1" fill-rule="nonzero"/><path fill="#9f5433" d="M 167.015625 88.832031 C 168.082031 90.339844 168.996094 91.953125 169.746094 93.644531 C 169.863281 93.910156 170.21875 94.136719 170.484375 94.210938 C 170.777344 94.292969 171.171875 94.257812 171.433594 94.085938 C 171.699219 93.917969 171.929688 93.664062 172.003906 93.347656 C 172.082031 93.003906 172.019531 92.71875 171.878906 92.398438 C 171.128906 90.707031 170.214844 89.09375 169.148438 87.585938 C 168.960938 87.316406 168.734375 87.105469 168.410156 87.015625 C 168.113281 86.933594 167.722656 86.972656 167.457031 87.140625 C 166.9375 87.476562 166.617188 88.265625 167.015625 88.832031 Z M 167.015625 88.832031 " fill-opacity="1" fill-rule="nonzero"/><path fill="#9f5433" d="M 159.523438 92.964844 C 160.644531 94.46875 161.765625 95.96875 162.886719 97.472656 C 163.085938 97.738281 163.289062 97.949219 163.621094 98.039062 C 163.917969 98.121094 164.3125 98.085938 164.574219 97.914062 C 165.085938 97.585938 165.429688 96.78125 165.015625 96.226562 C 163.898438 94.722656 162.777344 93.222656 161.65625 91.71875 C 161.457031 91.453125 161.25 91.246094 160.917969 91.152344 C 160.621094 91.070312 160.226562 91.109375 159.964844 91.277344 C 159.457031 91.605469 159.109375 92.414062 159.523438 92.964844 Z M 159.523438 92.964844 " fill-opacity="1" fill-rule="nonzero"/><path fill="#9f5433" d="M 151.816406 98.539062 C 153.308594 99.933594 154.730469 101.402344 156.082031 102.9375 C 156.511719 103.425781 157.398438 103.40625 157.828125 102.9375 C 158.304688 102.417969 158.285156 101.710938 157.828125 101.191406 C 156.476562 99.65625 155.054688 98.1875 153.5625 96.792969 C 153.089844 96.351562 152.277344 96.289062 151.816406 96.792969 C 151.375 97.269531 151.3125 98.066406 151.816406 98.539062 Z M 151.816406 98.539062 " fill-opacity="1" fill-rule="nonzero"/><path fill="#9f5433" d="M 145.140625 104.863281 C 145.535156 105.117188 145.925781 105.378906 146.304688 105.65625 C 146.402344 105.722656 146.496094 105.792969 146.589844 105.863281 C 146.632812 105.894531 146.671875 105.925781 146.714844 105.957031 C 146.746094 105.980469 146.777344 106.003906 146.808594 106.03125 C 146.765625 105.996094 146.722656 105.964844 146.683594 105.933594 C 146.859375 106.085938 147.050781 106.222656 147.230469 106.375 C 147.953125 106.976562 148.636719 107.621094 149.277344 108.308594 C 149.71875 108.78125 150.582031 108.789062 151.023438 108.308594 C 151.488281 107.800781 151.496094 107.066406 151.023438 106.5625 C 149.652344 105.097656 148.082031 103.808594 146.386719 102.730469 C 145.839844 102.382812 145 102.597656 144.699219 103.175781 C 144.375 103.785156 144.558594 104.492188 145.140625 104.863281 Z M 145.140625 104.863281 " fill-opacity="1" fill-rule="nonzero"/><path fill="#9f5433" d="M 140.941406 111.585938 C 141.050781 111.628906 141.164062 111.675781 141.273438 111.71875 C 141.402344 111.773438 141.386719 111.765625 141.230469 111.699219 C 141.285156 111.722656 141.339844 111.746094 141.394531 111.773438 C 141.617188 111.867188 141.835938 111.96875 142.050781 112.070312 C 142.472656 112.273438 142.890625 112.484375 143.296875 112.710938 C 144.125 113.171875 144.921875 113.6875 145.6875 114.246094 C 146.210938 114.632812 147.089844 114.351562 147.378906 113.804688 C 147.71875 113.160156 147.492188 112.523438 146.933594 112.117188 C 145.289062 110.90625 143.492188 109.953125 141.597656 109.203125 C 141.316406 109.09375 140.894531 109.183594 140.644531 109.328125 C 140.390625 109.476562 140.144531 109.769531 140.078125 110.066406 C 139.914062 110.777344 140.296875 111.328125 140.941406 111.585938 Z M 140.941406 111.585938 " fill-opacity="1" fill-rule="nonzero"/><path fill="#9f5433" d="M 136.648438 117.039062 C 138.363281 118.097656 140.117188 119.082031 141.917969 119.992188 C 142.492188 120.285156 143.28125 120.164062 143.605469 119.550781 C 143.902344 118.988281 143.777344 118.171875 143.164062 117.859375 C 141.367188 116.953125 139.609375 115.964844 137.894531 114.90625 C 137.34375 114.566406 136.511719 114.769531 136.207031 115.347656 C 135.886719 115.953125 136.0625 116.675781 136.648438 117.039062 Z M 136.648438 117.039062 " fill-opacity="1" fill-rule="nonzero"/><path fill="#9f5433" d="M 66.839844 205.449219 C 65.671875 208.542969 65.1875 211.816406 64.871094 215.09375 C 64.542969 218.464844 64.285156 221.851562 64.167969 225.238281 C 63.921875 232.128906 64.628906 238.863281 67.015625 245.363281 C 68.335938 248.960938 69.976562 252.425781 71.617188 255.882812 C 72.296875 257.320312 74.429688 256.066406 73.75 254.636719 C 70.984375 248.820312 68.238281 242.925781 67.179688 236.519531 C 66.097656 229.945312 66.644531 223.1875 67.207031 216.589844 C 67.507812 213.023438 67.949219 209.472656 69.21875 206.105469 C 69.78125 204.617188 67.394531 203.972656 66.839844 205.449219 Z M 66.839844 205.449219 " fill-opacity="1" fill-rule="nonzero"/><path fill="#f9a638" d="M 128.105469 209.292969 C 133.335938 208.511719 138.582031 207.828125 143.84375 207.246094 C 144.503906 207.171875 145.078125 206.730469 145.078125 206.011719 C 145.078125 205.398438 144.507812 204.703125 143.84375 204.777344 C 138.363281 205.382812 132.898438 206.097656 127.445312 206.910156 C 126.789062 207.011719 126.421875 207.84375 126.585938 208.429688 C 126.78125 209.136719 127.4375 209.390625 128.105469 209.292969 Z M 128.105469 209.292969 " fill-opacity="1" fill-rule="nonzero"/><path fill="#f9a638" d="M 149.957031 207.175781 C 150.085938 207.179688 150.21875 207.175781 150.351562 207.164062 C 150.578125 207.140625 150.804688 207.113281 151.027344 207.0625 C 151.375 206.988281 151.710938 206.847656 152.027344 206.691406 C 152.171875 206.613281 152.285156 206.507812 152.375 206.375 C 152.484375 206.253906 152.558594 206.113281 152.59375 205.953125 C 152.644531 205.789062 152.652344 205.625 152.617188 205.460938 C 152.609375 205.296875 152.5625 205.144531 152.46875 205.003906 C 152.300781 204.738281 152.046875 204.507812 151.734375 204.433594 C 151.625 204.421875 151.511719 204.40625 151.402344 204.390625 C 151.179688 204.390625 150.972656 204.449219 150.78125 204.558594 C 150.726562 204.585938 150.671875 204.613281 150.613281 204.636719 C 150.710938 204.59375 150.8125 204.554688 150.910156 204.511719 C 150.65625 204.617188 150.394531 204.6875 150.125 204.726562 C 150.234375 204.710938 150.34375 204.695312 150.453125 204.679688 C 150.289062 204.703125 150.121094 204.710938 149.957031 204.703125 C 149.785156 204.699219 149.628906 204.734375 149.480469 204.8125 C 149.328125 204.859375 149.195312 204.945312 149.082031 205.066406 C 148.960938 205.179688 148.878906 205.3125 148.828125 205.464844 C 148.75 205.609375 148.714844 205.769531 148.722656 205.941406 C 148.734375 206.257812 148.839844 206.589844 149.082031 206.8125 C 149.328125 207.039062 149.617188 207.164062 149.957031 207.175781 Z M 149.957031 207.175781 " fill-opacity="1" fill-rule="nonzero"/><path fill="#e52b1e" d="M 205.011719 147.335938 C 208.640625 138.265625 217.96875 131.929688 227.703125 131.746094 C 229.289062 131.71875 229.292969 129.246094 227.703125 129.277344 C 216.777344 129.484375 206.679688 136.5625 202.628906 146.679688 C 202.039062 148.152344 204.425781 148.792969 205.011719 147.335938 Z M 205.011719 147.335938 " fill-opacity="1" fill-rule="nonzero"/><path fill="#e52b1e" d="M 210.570312 150.804688 C 211.589844 149.28125 212.511719 147.894531 213.785156 146.605469 C 214.074219 146.316406 214.375 146.035156 214.6875 145.773438 C 214.753906 145.71875 214.820312 145.664062 214.886719 145.609375 C 215.210938 145.347656 214.804688 145.664062 214.996094 145.523438 C 215.167969 145.394531 215.34375 145.273438 215.523438 145.15625 C 215.867188 144.933594 216.222656 144.730469 216.585938 144.550781 C 216.613281 144.539062 216.886719 144.414062 216.792969 144.457031 C 216.707031 144.492188 217.003906 144.371094 217 144.375 C 217.203125 144.296875 217.40625 144.230469 217.613281 144.171875 C 218.230469 143.988281 218.683594 143.292969 218.472656 142.652344 C 218.269531 142.023438 217.617188 141.59375 216.953125 141.789062 C 213.035156 142.941406 210.605469 146.328125 208.4375 149.558594 C 208.078125 150.09375 208.316406 150.949219 208.878906 151.246094 C 209.503906 151.574219 210.183594 151.378906 210.570312 150.804688 Z M 210.570312 150.804688 " fill-opacity="1" fill-rule="nonzero"/><path fill="#6a8fb9" d="M 401.15625 155.503906 C 409.253906 157.40625 417.40625 159.050781 425.609375 160.433594 C 427.164062 160.699219 427.832031 158.320312 426.265625 158.054688 C 418.0625 156.667969 409.910156 155.023438 401.8125 153.125 C 400.265625 152.761719 399.605469 155.140625 401.15625 155.503906 Z M 401.15625 155.503906 " fill-opacity="1" fill-rule="nonzero"/><path fill="#6a8fb9" d="M 403.304688 148.351562 C 404.992188 148.824219 406.71875 149.125 408.460938 149.289062 C 409.105469 149.347656 409.722656 148.675781 409.695312 148.050781 C 409.664062 147.332031 409.152344 146.882812 408.460938 146.816406 C 408.246094 146.796875 408.03125 146.777344 407.816406 146.75 C 407.722656 146.742188 407.632812 146.730469 407.539062 146.71875 C 407.222656 146.679688 407.816406 146.757812 407.5 146.714844 C 407.101562 146.65625 406.703125 146.59375 406.308594 146.519531 C 405.519531 146.371094 404.734375 146.1875 403.960938 145.972656 C 403.339844 145.796875 402.589844 146.183594 402.441406 146.832031 C 402.292969 147.488281 402.636719 148.167969 403.304688 148.351562 Z M 403.304688 148.351562 " fill-opacity="1" fill-rule="nonzero"/><path fill="#9f5433" d="M 290.992188 431.664062 C 287.988281 439.699219 286.179688 448.300781 287.234375 456.894531 C 288.148438 464.3125 290.859375 471.410156 294.859375 477.710938 C 303.417969 491.191406 317.078125 500.136719 332.066406 505.054688 C 341.066406 508.007812 350.476562 509.570312 359.902344 510.308594 C 361.488281 510.429688 361.480469 507.960938 359.902344 507.835938 C 343.964844 506.589844 327.777344 502.800781 314.28125 493.90625 C 302.304688 486.011719 292.789062 473.621094 290.097656 459.351562 C 288.363281 450.171875 290.140625 440.964844 293.375 432.320312 C 293.933594 430.832031 291.546875 430.1875 290.992188 431.664062 Z M 290.992188 431.664062 " fill-opacity="1" fill-rule="nonzero"/><path fill="#9f5433" d="M 385.878906 508.039062 C 399.65625 505.507812 412.882812 499.980469 424.371094 491.960938 C 427.625 489.6875 430.742188 487.214844 433.703125 484.570312 C 434.894531 483.511719 433.140625 481.769531 431.957031 482.824219 C 421.738281 491.949219 409.5625 498.832031 396.476562 502.894531 C 392.785156 504.042969 389.023438 504.960938 385.222656 505.65625 C 383.660156 505.945312 384.324219 508.324219 385.878906 508.039062 Z M 385.878906 508.039062 " fill-opacity="1" fill-rule="nonzero"/><path fill="#9f5433" d="M 330.660156 411.496094 C 341.976562 412.398438 352.964844 416.417969 362.265625 422.921875 C 364.941406 424.789062 367.449219 426.875 369.800781 429.136719 C 370.945312 430.238281 372.695312 428.496094 371.546875 427.390625 C 362.980469 419.148438 352.195312 413.28125 340.617188 410.566406 C 337.34375 409.800781 334.011719 409.292969 330.660156 409.027344 C 329.074219 408.902344 329.082031 411.371094 330.660156 411.496094 Z M 330.660156 411.496094 " fill-opacity="1" fill-rule="nonzero"/><path fill="#9f5433" d="M 496.242188 455.746094 C 499.605469 465.570312 500.125 476.207031 497.675781 486.304688 C 497.304688 487.851562 499.683594 488.507812 500.058594 486.960938 C 502.605469 476.453125 502.125 465.324219 498.621094 455.089844 C 498.109375 453.59375 495.722656 454.234375 496.242188 455.746094 Z M 496.242188 455.746094 " fill-opacity="1" fill-rule="nonzero"/><path fill="#9f5433" d="M 503.378906 433.566406 C 505.121094 437.480469 508.289062 440.410156 510.695312 443.886719 C 513.367188 447.738281 514.507812 452.261719 515.597656 456.753906 C 515.972656 458.300781 518.351562 457.644531 517.976562 456.097656 C 516.867188 451.523438 515.683594 446.863281 513.015625 442.910156 C 510.589844 439.316406 507.296875 436.328125 505.507812 432.320312 C 504.863281 430.871094 502.734375 432.125 503.378906 433.566406 Z M 503.378906 433.566406 " fill-opacity="1" fill-rule="nonzero"/><path fill="#9f5433" d="M 235.195312 465.332031 C 233.601562 470.539062 232.503906 475.875 231.90625 481.285156 C 231.613281 483.933594 231.449219 486.597656 231.40625 489.261719 C 231.371094 491.765625 231.46875 494.242188 232.589844 496.527344 C 233.289062 497.953125 235.421875 496.703125 234.722656 495.28125 C 233.699219 493.195312 233.839844 490.742188 233.894531 488.480469 C 233.953125 485.945312 234.128906 483.417969 234.421875 480.898438 C 235.003906 475.84375 236.085938 470.851562 237.578125 465.988281 C 238.046875 464.464844 235.664062 463.816406 235.195312 465.332031 Z M 235.195312 465.332031 " fill-opacity="1" fill-rule="nonzero"/><path fill="#9f5433" d="M 303.363281 536.242188 C 312.21875 537.605469 321.195312 537.46875 330.003906 535.8125 C 331.5625 535.519531 330.902344 533.136719 329.347656 533.429688 C 321.007812 534.996094 312.40625 535.152344 304.019531 533.859375 C 302.464844 533.621094 301.792969 536 303.363281 536.242188 Z M 303.363281 536.242188 " fill-opacity="1" fill-rule="nonzero"/><path fill="#9f5433" d="M 326.183594 553.035156 C 334.3125 551.199219 341.824219 547.113281 347.804688 541.316406 C 348.949219 540.207031 347.199219 538.460938 346.058594 539.570312 C 340.367188 545.082031 333.253906 548.910156 325.527344 550.652344 C 323.980469 551 324.632812 553.382812 326.183594 553.035156 Z M 326.183594 553.035156 " fill-opacity="1" fill-rule="nonzero"/><path fill="#9f5433" d="M 387.65625 536.269531 C 391.363281 540.160156 396.359375 542.78125 401.679688 543.5625 C 402.339844 543.65625 403.007812 543.398438 403.199219 542.699219 C 403.359375 542.117188 403 541.277344 402.335938 541.179688 C 397.398438 540.457031 392.847656 538.140625 389.402344 534.523438 C 388.300781 533.371094 386.558594 535.121094 387.65625 536.269531 Z M 387.65625 536.269531 " fill-opacity="1" fill-rule="nonzero"/><path fill="#9f5433" d="M 341.523438 354.152344 C 347.777344 348.527344 355.511719 344.773438 363.777344 343.257812 C 365.339844 342.972656 364.675781 340.589844 363.121094 340.875 C 354.4375 342.46875 346.335938 346.507812 339.777344 352.40625 C 338.59375 353.46875 340.34375 355.210938 341.523438 354.152344 Z M 341.523438 354.152344 " fill-opacity="1" fill-rule="nonzero"/><path fill="#9f5433" d="M 496.332031 389.886719 C 497.484375 384.773438 500.210938 380.171875 504.132812 376.699219 C 505.324219 375.640625 503.574219 373.898438 502.386719 374.949219 C 498.171875 378.683594 495.191406 383.738281 493.949219 389.226562 C 493.597656 390.777344 495.980469 391.4375 496.332031 389.886719 Z M 496.332031 389.886719 " fill-opacity="1" fill-rule="nonzero"/><path fill="#f9a638" d="M 545.417969 573.851562 C 560.585938 560.28125 575.757812 546.710938 590.929688 533.140625 C 605.398438 520.191406 620.128906 507.472656 634.003906 493.878906 C 641.597656 486.4375 648.886719 478.679688 655.570312 470.410156 C 656.558594 469.183594 654.824219 467.425781 653.824219 468.660156 C 641.949219 483.359375 628.191406 496.363281 614.1875 509 C 599.292969 522.445312 584.285156 535.773438 569.328125 549.152344 C 560.777344 556.804688 552.222656 564.453125 543.671875 572.105469 C 542.484375 573.167969 544.234375 574.910156 545.417969 573.851562 Z M 545.417969 573.851562 " fill-opacity="1" fill-rule="nonzero"/><path fill="#f9a638" d="M 551.683594 577.234375 C 557.765625 570.132812 564.632812 563.769531 571.617188 557.570312 C 578.890625 551.117188 586.210938 544.71875 593.511719 538.296875 C 608.355469 525.238281 623.230469 512.210938 638.042969 499.117188 C 645.835938 492.222656 653.113281 484.96875 658.417969 475.9375 C 659.226562 474.5625 657.089844 473.316406 656.285156 474.6875 C 651.617188 482.644531 645.378906 489.21875 638.554688 495.355469 C 631.296875 501.882812 623.910156 508.269531 616.582031 514.714844 C 601.777344 527.738281 586.964844 540.75 572.171875 553.789062 C 564.402344 560.640625 556.6875 567.605469 549.9375 575.488281 C 548.910156 576.6875 550.648438 578.441406 551.683594 577.234375 Z M 551.683594 577.234375 " fill-opacity="1" fill-rule="nonzero"/><path fill="#9f5433" d="M 37.109375 288.503906 C 37.1875 288.523438 144.476562 323.601562 159.566406 318.878906 C 174.652344 314.160156 177.511719 309.34375 177.511719 309.34375 Z M 37.109375 288.503906 " fill-opacity="1" fill-rule="nonzero"/><path fill="#f9eae1" d="M 166.441406 301.503906 C 166.441406 301.503906 177.171875 308.019531 179.597656 309.476562 C 182.027344 310.929688 161.546875 316.621094 161.546875 316.621094 C 161.546875 316.621094 148.820312 305.152344 166.441406 301.503906 Z M 166.441406 301.503906 " fill-opacity="1" fill-rule="nonzero"/><path fill="#ffba53" d="M 43.234375 278.132812 L 166.441406 301.503906 C 166.441406 301.503906 158.222656 305.074219 161.546875 316.621094 L 40.40625 293.671875 C 40.40625 293.671875 34 285.808594 43.234375 278.132812 Z M 43.234375 278.132812 " fill-opacity="1" fill-rule="nonzero"/><path fill="#612b1a" d="M 177.542969 309.367188 C 178.679688 307.824219 182.328125 308.933594 182.410156 309.996094 C 182.492188 311.058594 175.136719 312.640625 177.542969 309.367188 Z M 177.542969 309.367188 " fill-opacity="1" fill-rule="nonzero"/><path fill="#f9a638" d="M 40.441406 284.339844 C 56.691406 287.574219 72.9375 290.808594 89.1875 294.042969 C 105.082031 297.203125 120.957031 300.714844 137.007812 303.019531 C 145.9375 304.300781 154.933594 305.148438 163.960938 305.191406 C 165.550781 305.199219 165.554688 302.730469 163.960938 302.722656 C 147.980469 302.648438 132.195312 300.011719 116.550781 296.964844 C 100.519531 293.839844 84.511719 290.597656 68.492188 287.410156 C 59.363281 285.59375 50.230469 283.777344 41.097656 281.957031 C 39.546875 281.648438 38.882812 284.03125 40.441406 284.339844 Z M 40.441406 284.339844 " fill-opacity="1" fill-rule="nonzero"/><path fill="#f9a638" d="M 41.078125 291.246094 C 48.972656 291.550781 56.75 292.953125 64.476562 294.542969 C 72.34375 296.160156 80.195312 297.828125 88.054688 299.476562 C 103.761719 302.761719 119.457031 306.097656 135.171875 309.339844 C 139.4375 310.21875 143.734375 311.023438 148.085938 311.355469 C 152.5 311.691406 156.910156 311.441406 161.277344 310.714844 C 162.839844 310.457031 162.175781 308.074219 160.621094 308.332031 C 152.800781 309.636719 145.101562 308.820312 137.386719 307.273438 C 129.582031 305.710938 121.800781 304.023438 114.011719 302.390625 C 98.371094 299.113281 82.730469 295.824219 67.085938 292.566406 C 58.503906 290.777344 49.859375 289.113281 41.078125 288.773438 C 39.488281 288.714844 39.488281 291.183594 41.078125 291.246094 Z M 41.078125 291.246094 " fill-opacity="1" fill-rule="nonzero"/><path fill="#f9a638" d="M 641.496094 233.007812 C 637.882812 231.371094 635.84375 227.785156 634.757812 224.117188 C 633.753906 220.726562 633.460938 216.914062 634.71875 213.550781 C 636.222656 209.511719 640.054688 207.828125 644.066406 207.210938 C 648.675781 206.503906 653.402344 207.308594 657.640625 209.199219 C 662.214844 211.234375 666.273438 214.238281 670.277344 217.207031 C 671.554688 218.152344 672.789062 216.011719 671.523438 215.074219 C 667.519531 212.105469 663.460938 209.105469 658.886719 207.066406 C 654.113281 204.9375 648.984375 204.027344 643.785156 204.773438 C 639.324219 205.414062 634.957031 207.308594 632.898438 211.5625 C 631.09375 215.292969 631.121094 219.675781 632.070312 223.636719 C 633.179688 228.261719 635.730469 233.097656 640.25 235.140625 C 641.6875 235.792969 642.945312 233.664062 641.496094 233.007812 Z M 641.496094 233.007812 " fill-opacity="1" fill-rule="nonzero"/><path fill="#f9a638" d="M 644.792969 227.566406 C 643.054688 226.214844 641.839844 224.324219 641.476562 222.132812 C 641.101562 219.863281 641.785156 217.5625 643.132812 215.730469 C 643.527344 215.191406 643.222656 214.351562 642.691406 214.039062 C 642.0625 213.671875 641.394531 213.945312 641 214.484375 C 637.617188 219.085938 638.527344 225.804688 643.046875 229.3125 C 643.574219 229.71875 644.28125 229.824219 644.792969 229.3125 C 645.21875 228.886719 645.324219 227.976562 644.792969 227.566406 Z M 644.792969 227.566406 " fill-opacity="1" fill-rule="nonzero"/><path fill="#f9a638" d="M 653.863281 243.253906 C 656.988281 245.722656 660.269531 248.183594 664.148438 249.316406 C 667.691406 250.351562 671.707031 250.167969 674.855469 248.109375 C 676.183594 247.242188 674.945312 245.105469 673.609375 245.976562 C 667.480469 249.980469 660.457031 245.339844 655.609375 241.507812 C 654.375 240.53125 652.617188 242.265625 653.863281 243.253906 Z M 653.863281 243.253906 " fill-opacity="1" fill-rule="nonzero"/><path fill="#f9a638" d="M 441.414062 526.605469 C 439.054688 532.15625 440.660156 538.691406 444.921875 542.882812 C 449.507812 547.390625 456.285156 548.902344 462.519531 548.082031 C 469.128906 547.214844 475.625 544.105469 480.8125 539.96875 C 485.734375 536.042969 489.242188 530.449219 488.835938 523.96875 C 488.386719 516.703125 483.910156 510.109375 477.679688 506.492188 C 476.304688 505.691406 475.058594 507.824219 476.433594 508.625 C 481.25 511.421875 484.863281 516.136719 486.039062 521.613281 C 487.296875 527.453125 485.007812 532.792969 480.753906 536.769531 C 476.59375 540.65625 471.082031 543.523438 465.597656 544.972656 C 460.074219 546.429688 453.96875 546.160156 449.050781 543.027344 C 444.183594 539.925781 441.171875 533.433594 443.546875 527.855469 C 443.808594 527.234375 443.726562 526.539062 443.101562 526.164062 C 442.585938 525.855469 441.671875 525.992188 441.414062 526.605469 Z M 441.414062 526.605469 " fill-opacity="1" fill-rule="nonzero"/><path fill="#6a8fb9" d="M 661.339844 288.742188 C 659.839844 286.335938 657.65625 283.734375 654.472656 284.542969 C 651.417969 285.320312 649.492188 288.574219 648.449219 291.3125 C 647.253906 294.449219 646.875 297.933594 646.6875 301.261719 C 646.488281 304.734375 646.671875 308.226562 647.265625 311.660156 C 647.933594 315.527344 649.207031 319.277344 651.082031 322.730469 C 651.839844 324.125 653.972656 322.882812 653.214844 321.484375 C 649.574219 314.78125 648.589844 307.011719 649.289062 299.492188 C 649.609375 296.039062 650.175781 292.320312 652.171875 289.394531 C 652.996094 288.1875 654.441406 286.558594 656.085938 286.902344 C 657.546875 287.207031 658.484375 288.828125 659.210938 289.988281 C 660.046875 291.335938 662.1875 290.097656 661.339844 288.742188 Z M 661.339844 288.742188 " fill-opacity="1" fill-rule="nonzero"/><path fill="#6a8fb9" d="M 658.605469 330.167969 C 660.421875 333.222656 663.386719 335.511719 666.796875 336.5 C 667.417969 336.679688 668.167969 336.28125 668.316406 335.636719 C 668.464844 334.976562 668.117188 334.3125 667.453125 334.117188 C 667.085938 334.011719 666.722656 333.890625 666.367188 333.753906 C 666.351562 333.746094 666.007812 333.605469 666.234375 333.703125 C 666.164062 333.671875 666.09375 333.640625 666.023438 333.609375 C 665.851562 333.53125 665.679688 333.449219 665.507812 333.359375 C 665.167969 333.1875 664.832031 332.996094 664.507812 332.792969 C 664.347656 332.691406 664.1875 332.585938 664.03125 332.476562 C 663.933594 332.414062 663.839844 332.347656 663.75 332.277344 C 663.726562 332.261719 663.488281 332.082031 663.597656 332.167969 C 663.703125 332.25 663.445312 332.042969 663.453125 332.050781 C 663.378906 331.988281 663.304688 331.925781 663.234375 331.863281 C 663.085938 331.742188 662.945312 331.613281 662.804688 331.480469 C 662.523438 331.222656 662.257812 330.945312 662 330.660156 C 661.875 330.519531 661.75 330.375 661.628906 330.226562 C 661.578125 330.164062 661.464844 330.023438 661.570312 330.160156 C 661.511719 330.082031 661.457031 330.007812 661.402344 329.929688 C 661.164062 329.605469 660.945312 329.265625 660.738281 328.921875 C 660.410156 328.367188 659.613281 328.113281 659.050781 328.476562 C 658.492188 328.839844 658.253906 329.574219 658.605469 330.167969 Z M 658.605469 330.167969 " fill-opacity="1" fill-rule="nonzero"/><path fill="#6a8fb9" d="M 657.394531 294.351562 C 655.773438 295.121094 654.691406 296.777344 654.273438 298.488281 C 653.757812 300.589844 654.171875 302.757812 654.601562 304.835938 C 654.734375 305.488281 655.503906 305.867188 656.117188 305.699219 C 656.796875 305.511719 657.117188 304.835938 656.980469 304.179688 C 656.652344 302.59375 656.277344 300.820312 656.625 299.273438 C 656.90625 298.015625 657.503906 297.023438 658.640625 296.484375 C 659.246094 296.195312 659.402344 295.335938 659.085938 294.792969 C 658.726562 294.175781 658 294.0625 657.394531 294.351562 Z M 657.394531 294.351562 " fill-opacity="1" fill-rule="nonzero"/><path fill="#6a8fb9" d="M 680.121094 327.910156 C 682.988281 324.933594 684.175781 320.703125 683.820312 316.632812 C 683.414062 311.992188 681.253906 307.773438 678.683594 303.96875 C 677.800781 302.660156 675.660156 303.894531 676.550781 305.214844 C 678.804688 308.546875 680.863281 312.253906 681.320312 316.320312 C 681.714844 319.835938 680.878906 323.5625 678.375 326.160156 C 677.273438 327.308594 679.015625 329.054688 680.121094 327.910156 Z M 680.121094 327.910156 " fill-opacity="1" fill-rule="nonzero"/><path fill="#778c20" d="M 508.113281 204.402344 C 501.011719 207.203125 494.15625 211.769531 490.722656 218.824219 C 487.441406 225.566406 487.574219 233.851562 492.863281 239.542969 C 495.535156 242.421875 499.25 244.257812 503.199219 244.320312 C 504.789062 244.347656 504.789062 241.878906 503.199219 241.851562 C 496.988281 241.75 492.015625 236.417969 491.097656 230.496094 C 490.03125 223.621094 493.675781 216.953125 498.769531 212.59375 C 501.707031 210.078125 505.183594 208.199219 508.773438 206.785156 C 510.234375 206.207031 509.597656 203.816406 508.113281 204.402344 Z M 508.113281 204.402344 " fill-opacity="1" fill-rule="nonzero"/><path fill="#778c20" d="M 525.34375 201.539062 C 527.417969 201.921875 529.542969 202.410156 531.332031 203.582031 C 533.023438 204.695312 534.074219 206.445312 534.675781 208.347656 C 535.269531 210.21875 535.523438 212.183594 535.6875 214.136719 C 535.867188 216.308594 535.902344 218.574219 534.820312 220.53125 C 534.050781 221.925781 536.183594 223.171875 536.953125 221.777344 C 538.195312 219.53125 538.367188 216.992188 538.183594 214.476562 C 538.007812 212.101562 537.726562 209.65625 536.960938 207.390625 C 536.21875 205.195312 534.996094 203.222656 533.117188 201.828125 C 531.046875 200.292969 528.496094 199.621094 526.003906 199.15625 C 524.449219 198.867188 523.78125 201.246094 525.34375 201.539062 Z M 525.34375 201.539062 " fill-opacity="1" fill-rule="nonzero"/><path fill="#778c20" d="M 503.792969 225.605469 C 506.09375 221.191406 509.605469 217.511719 513.929688 215.03125 C 517.597656 212.925781 523.847656 210.355469 527.679688 213.429688 C 528.910156 214.414062 530.667969 212.679688 529.425781 211.683594 C 524.800781 207.972656 518.230469 209.953125 513.503906 212.449219 C 508.472656 215.105469 504.289062 219.316406 501.664062 224.359375 C 500.929688 225.769531 503.058594 227.019531 503.792969 225.605469 Z M 503.792969 225.605469 " fill-opacity="1" fill-rule="nonzero"/><path fill="#e52b1e" d="M 578.433594 233.183594 C 577.695312 230.464844 579.984375 228.296875 582.386719 227.566406 C 585.101562 226.734375 588.050781 227.101562 590.695312 228.023438 C 596.328125 229.988281 600.511719 234.542969 604.472656 238.796875 C 605.558594 239.964844 607.300781 238.214844 606.21875 237.050781 C 601.503906 231.988281 596.34375 226.625 589.324219 225.0625 C 586.1875 224.367188 582.667969 224.429688 579.78125 225.988281 C 576.984375 227.5 575.1875 230.664062 576.050781 233.839844 C 576.464844 235.371094 578.851562 234.722656 578.433594 233.183594 Z M 578.433594 233.183594 " fill-opacity="1" fill-rule="nonzero"/><path fill="#e52b1e" d="M 596.054688 240.140625 C 598.109375 242.101562 600.257812 244.003906 602.191406 246.085938 C 603.945312 247.976562 605.386719 250.117188 606.535156 252.425781 C 607.246094 253.847656 609.375 252.597656 608.667969 251.179688 C 607.460938 248.753906 605.914062 246.5 604.085938 244.5 C 602.121094 242.351562 599.90625 240.40625 597.800781 238.394531 C 596.652344 237.296875 594.902344 239.039062 596.054688 240.140625 Z M 596.054688 240.140625 " fill-opacity="1" fill-rule="nonzero"/><path fill="#e52b1e" d="M 342.234375 430.941406 C 346.109375 431.179688 349.984375 430.945312 353.8125 430.289062 C 354.46875 430.175781 354.835938 429.367188 354.671875 428.769531 C 354.480469 428.074219 353.8125 427.796875 353.15625 427.910156 C 349.550781 428.523438 345.882812 428.695312 342.234375 428.46875 C 341.570312 428.429688 341 429.066406 341 429.707031 C 341 430.410156 341.566406 430.898438 342.234375 430.941406 Z M 342.234375 430.941406 " fill-opacity="1" fill-rule="nonzero"/></svg>